<?xml version="1.0" encoding="UTF-8"?>
<svg width="64px" height="64px" viewBox="0 0 64 64" version="1.1" xmlns="http://www.w3.org/2000/svg" xmlns:xlink="http://www.w3.org/1999/xlink">
    <title>Supply Setu Logo</title>
    <defs>
        <linearGradient x1="0%" y1="0%" x2="100%" y2="100%" id="linearGradient-1">
            <stop stop-color="#0056B3" offset="0%"></stop>
            <stop stop-color="#003B7A" offset="100%"></stop>
        </linearGradient>
    </defs>
    <g id="Logo" stroke="none" stroke-width="1" fill="none" fill-rule="evenodd">
        <circle id="Background" fill="url(#linearGradient-1)" cx="32" cy="32" r="32"></circle>
        
        <!-- Bridge Icon -->
        <path id="Bridge" stroke="#FFFFFF" stroke-width="4" d="M10,40 C22,20 42,20 54,40" stroke-linecap="round"></path>
        
        <!-- S Letterforms for "Supply Setu" -->
        <path id="S1" fill="#FFFFFF" d="M18,28 C18,25 20,23 23,23 C26,23 28,25 28,28 C28,31 26,33 23,33 L23,36 L20,36 L20,30 C20,30 23,30 23,30 C24.1,30 25,29.1 25,28 C25,26.9 24.1,26 23,26 C21.9,26 21,26.9 21,28 L18,28 Z"></path>
        <path id="S2" fill="#FFFFFF" d="M41,28 C41,25 43,23 46,23 C49,23 51,25 51,28 C51,31 49,33 46,33 L46,36 L43,36 L43,30 C43,30 46,30 46,30 C47.1,30 48,29.1 48,28 C48,26.9 47.1,26 46,26 C44.9,26 44,26.9 44,28 L41,28 Z"></path>
        
        <!-- Line connecting the two S's (representing the bridge/setu) -->
        <line x1="28" y1="30" x2="41" y2="30" id="Connector" stroke="#FFC107" stroke-width="3"></line>
    </g>
</svg>
